<?xml version="1.0" encoding="utf-8"?>
<!-- Generator: Adobe Illustrator 24.1.2, SVG Export Plug-In . SVG Version: 6.00 Build 0)  -->
<svg version="1.1" xmlns="http://www.w3.org/2000/svg" xmlns:xlink="http://www.w3.org/1999/xlink" x="0px" y="0px"
	 viewBox="0 0 252.45 324.51" style="enable-background:new 0 0 252.45 324.51;" xml:space="preserve">
<style type="text/css">
	.st0{fill:#161414;}
	.st1{fill:#169747;}
</style>
<g id="Layer_1">
</g>
<g id="Layer_2">
	<path class="st0" d="M79.78,1.1c0,0,63.18,6.71,94.24,17.29s39.18,25.06,43.06,31.76s26.47,50.47,32.82,116.12
		c6.35,65.65-1.06,113.65-1.76,124.59c-19.93-0.16-34.24-5.65-40.59-11.65c-6.35-6-12.71-32.82-15.53-46.94s-5.65-43.76-12-55.76
		c-6.35-12-26.82-34.94-37.41-39.53c-10.59-4.59-13.41-8.12-17.29-17.65c-3.88-9.53,0.35-27.88-1.41-36.35
		c-1.76-8.47-3.88-15.88-13.41-19.06c-9.53-3.18-20.47-7.06-24.71-11.65C81.54,47.69,76.25,28.27,79.78,1.1z"/>
	<path class="st1" d="M248.13,290.86c-19.93-0.16-34.24-5.65-40.59-11.65c-6.35-6-12.71-32.82-15.53-46.94s-5.65-43.76-12-55.76
		c-6.35-12-26.82-34.94-37.41-39.53c-10.59-4.59-13.41-8.12-17.29-17.65c-3.88-9.53,0.35-27.88-1.41-36.35
		c-1.76-8.47-3.88-15.88-13.41-19.06c-9.53-3.18-20.47-7.06-24.71-11.65c-4.24-4.59-9.53-24-6-51.18c0,0-39.18-2.47-48.71,0
		S11.31,6.39,4.96,17.69s-5.29,28.94-3.88,35.29s3.88,21.53,6.71,27.88c2.82,6.35,8.82,34.59,9.18,50.82s-1.06,37.75-3.18,52.93
		c-2.12,15.19-5.65,49.42-4.94,57.89c0.71,8.47-2.82,28.24,17.65,52.59c20.47,24.35,61.41,30.35,108.71,29.29
		c47.29-1.06,92.47-0.71,100.94-10.59C244.6,303.92,248.13,290.86,248.13,290.86z"/>
</g>
</svg>
